<!DOCTYPE svg PUBLIC "-//W3C//DTD SVG 20010904//EN" "http://www.w3.org/TR/2001/REC-SVG-20010904/DTD/svg10.dtd">
<svg version="1.0" xmlns="http://www.w3.org/2000/svg" width="200px" height="200px" viewBox="0 0 2000 2000" preserveAspectRatio="xMidYMid meet">
<g id="layer1" fill="#402000" stroke="none">
 <path d="M1000 1370 l0 -190 -188 0 -189 0 8 -56 c22 -163 161 -302 318 -321 l51 -6 0 192 0 191 186 0 187 0 -6 56 c-16 155 -156 292 -324 318 l-43 6 0 -190z"/>
 </g>
<g id="layer2" fill="#ffffff" stroke="none">
 <path d="M930 1549 c-71 -14 -144 -55 -199 -114 -60 -63 -86 -116 -99 -198 l-9 -57 189 0 188 0 0 -191 0 -192 51 6 c157 19 296 158 318 321 l8 56 -189 0 -188 0 0 190 c0 146 -3 190 -12 189 -7 -1 -33 -5 -58 -10z"/>
 </g>
<g id="layer3" fill="#d93600" stroke="none">
 <path d="M170 1765 c-55 -80 -120 -211 -120 -242 0 -17 92 -120 426 -479 l104 -111 114 -377 c62 -207 117 -380 121 -384 9 -9 361 -9 370 0 4 4 59 177 121 384 l114 377 104 111 c334 359 426 462 426 479 0 61 -156 317 -193 317 -11 0 -186 -39 -388 -87 l-369 -87 -369 87 c-202 48 -377 87 -388 87 -14 0 -37 -24 -73 -75z m968 -237 c68 -26 163 -113 196 -181 94 -191 11 -424 -184 -516 -47 -22 -68 -26 -150 -26 -82 0 -103 4 -150 26 -157 74 -244 238 -218 407 13 81 40 134 99 197 109 116 256 149 407 93z"/>
 </g>

</svg>